<svg xmlns="http://www.w3.org/2000/svg" viewBox="0 0 27.68 27.1"><defs><style>.cls-1{fill:none;stroke:#e4e4e4;stroke-miterlimit:10;stroke-width:1px;}</style></defs><title>email</title><g id="Layer_2" data-name="Layer 2"><g id="Layer_2-2" data-name="Layer 2"><path class="cls-1" d="M1,7.49l.22,12.7A6.75,6.75,0,0,0,6.27,26.1H20.91s4.83-1,5.77-5.05V7.13S26,1.58,21,1H7.13A7.21,7.21,0,0,0,1,7.49Z"/><rect class="cls-1" x="7.18" y="8.3" width="14.24" height="10.67"/><path class="cls-1" d="M7.18,8.3l5.14,5.31,1,1.11a1.56,1.56,0,0,0,.92.37,1.48,1.48,0,0,0,1-.42l.91-.9,5.24-5.42"/><line class="cls-1" x1="7.18" y1="18.97" x2="12.43" y2="13.72"/><line class="cls-1" x1="21.43" y1="18.97" x2="16.23" y2="13.78"/></g></g></svg>