<svg 
    xmlns="http://www.w3.org/2000/svg" 
    viewBox="0 0 3000 200.4"
>
    <defs>
        <style>
        .cls-1{
            fill:none;
            stroke:#eed7c5;
            stroke-miterlimit:10;
            stroke-width:1px;
        }
        </style>
    </defs> 
    <title>
        squiggle
    </title>    
    <g id="Layer_2" data-name="Layer 2">
    <g id="Layer_2-2" data-name="Layer 2">
    <path 
        class="cls-1" 
        d="M.12,107.6c58.66,4.53,103-3.56,132.53-11.72,64.38-17.8,121-45.38,121-45.38C284.12,35.65,302.26,24,333,22.56c5.52-.25,60.23-2.24,67.94,22.51,5,16.1-11.4,38.58-29.86,45.67-7.94,3.05-22.32,5.77-27.23-.88-3.93-5.32-.06-14.3,1.21-17.26,0,0,5.89-13.65,22.44-22.15,20.36-10.46,94.87-7.94,194.16,8.68l40.69,5s26.64,4.69,47.72-4.39,24.59-26.05,24.59-26.05,3.51-10-24-6.74S624,57.37,624,57.37c1.3,8.18,4.4,19.12,12.59,28.4,22.38,25.35,65.75,19,109.78,12.58,10.35-1.51,75.07-15,126.47-38.35,34.95-15.9,44.78-24.3,80.21-36.88a326,326,0,0,1,59.43-14.93S1053.17,0,1095,1.75c14.32.6,19.7.68,25.31,1.18a368.33,368.33,0,0,1,38.13,5.33"
    />
    </g>
    </g>
</svg>