<svg xmlns="http://www.w3.org/2000/svg" 
height="30px"
viewBox="0 0 1158.49 108.4"><defs><style>.cls-1{fill:none;stroke:#ffffff;stroke-miterlimit:10;stroke-width:3}</style></defs><title>Asset 2</title><g id="Layer_2" data-name="Layer 2"><g id="Layer_2-2" data-name="Layer 2"><path class="cls-1" d="M0,106.6C58.7,111.13,103,103,132.58,94.88c64.37-17.8,121-45.38,121-45.38C284,34.65,302.18,23,332.92,21.56c5.51-.25,60.23-2.24,67.93,22.51,5,16.1-11.39,38.58-29.86,45.67-7.94,3.05-22.31,5.77-27.23-.88-3.93-5.32-.06-14.3,1.22-17.26,0,0,5.88-13.65,22.43-22.15,20.36-10.46,94.87-7.94,194.16,8.68l40.69,5S628.9,67.79,650,58.71s24.59-26.05,24.59-26.05,3.51-10-24-6.74-26.64,30.45-26.64,30.45c1.3,8.18,4.4,19.12,12.59,28.4,22.39,25.35,65.75,19,109.78,12.58,10.36-1.51,75.07-15,126.47-38.35,35-15.9,44.79-24.3,80.21-36.88A326.23,326.23,0,0,1,1012.4,7.19S1053.09-1,1095,.75c14.31.6,19.69.68,25.3,1.18a368.33,368.33,0,0,1,38.13,5.33"/></g></g></svg>