<svg xmlns="http://www.w3.org/2000/svg" viewBox="0 0 27.68 27.1"><defs><style>.cls-1{fill:none;stroke:#e4e4e4;stroke-miterlimit:10;stroke-width:1px;}.cls-2{fill:#e4e4e4;}</style></defs><title>github</title><g id="Layer_2" data-name="Layer 2"><g id="Layer_1-2" data-name="Layer 1"><path class="cls-1" d="M1,7.49l.22,12.7A6.76,6.76,0,0,0,6.27,26.1H20.91s4.83-1,5.77-5.05V7.13S26,1.58,21,1H7.13A7.21,7.21,0,0,0,1,7.49Z"/><path class="cls-2" d="M13,23.31l-.21,0Z"/><path class="cls-2" d="M12.09,23.18l-.2,0Z"/><path class="cls-2" d="M15.2,23.27l-.32,0Z"/><path class="cls-2" d="M13.94,4.08A9.64,9.64,0,0,0,11,22.91V21.78h-.8a3.18,3.18,0,0,1-1.94-.7C7.58,20.4,7.54,20,7.54,20a2.25,2.25,0,0,0-.65-1.06,3.09,3.09,0,0,0-.62-.42s-.36-.17-.23-.73,1.14-.45,1.14-.45A2.62,2.62,0,0,1,8.82,18.5a1.54,1.54,0,0,0,1.46.85,1.44,1.44,0,0,0,.75-.14l.31-.7a6.38,6.38,0,0,1-2.86-1.42,4.21,4.21,0,0,1-1.16-2,6.4,6.4,0,0,1,.19-3.89,6.82,6.82,0,0,1,.58-.91A2.71,2.71,0,0,1,8,8.57c.2-1.27.54-1.26.54-1.26a2.94,2.94,0,0,1,2.1.42,3.94,3.94,0,0,1,.87.5A9.2,9.2,0,0,1,14,7.93a14.1,14.1,0,0,1,2.32.3,4.74,4.74,0,0,1,2-1s.8-.15,1,.15.63.62.35,2.89a3.93,3.93,0,0,1,.64,1,4.71,4.71,0,0,1,.25,2.8,5.1,5.1,0,0,1-1.06,2.85,4.7,4.7,0,0,1-3.06,1.49A9.8,9.8,0,0,1,16.94,20a10.07,10.07,0,0,1,0,2.85,9.64,9.64,0,0,0-3-18.79Z"/><path class="cls-2" d="M16.09,23.11l-.32.07Z"/><path class="cls-2" d="M16.88,22.9l-.21.06Z"/></g></g></svg>