<svg xmlns="http://www.w3.org/2000/svg" viewBox="0 0 27.68 27.1"><defs><style>.cls-1{fill:none;stroke:#e4e4e4;stroke-miterlimit:10;stroke-width:2px;}.cls-2{fill:#e4e4e4;}</style></defs><title>linkedin</title><g id="Layer_2" data-name="Layer 2"><g id="Layer_2-2" data-name="Layer 2"><path class="cls-1" d="M1,7.49l.22,12.7A6.75,6.75,0,0,0,6.27,26.1H20.91s4.83-1,5.77-5.05V7.13S26,1.58,21,1H7.13A7.21,7.21,0,0,0,1,7.49Z"/><circle class="cls-2" cx="7.47" cy="6.99" r="2.18"/><rect class="cls-2" x="5.6" y="10.24" width="3.64" height="11.86"/><path class="cls-2" d="M15.05,14.29a2.43,2.43,0,0,0-.42.67,3.07,3.07,0,0,0-.17,1.38c0,.46,0,.92,0,1.38,0,.87,0,.67,0,2.29,0,.48,0,1.17,0,2H10.82V10.19h3.64l0,1.81a5.31,5.31,0,0,1,4-1.81,4.47,4.47,0,0,1,3.05,1.3,4.13,4.13,0,0,1,.78,1.35,8.09,8.09,0,0,1,.25,2.84c0,1.29,0,1.93,0,1.89,0,1.05,0,2.57-.05,4.56l-3.73,0c0-1.21,0-2.18,0-2.82,0-1,0-1.24,0-2.05,0-.42,0-.84,0-1.26a3.08,3.08,0,0,0-.29-1.67c0-.06-.07-.1-.07-.11a2,2,0,0,0-.76-.64,2.24,2.24,0,0,0-1.76,0A2.59,2.59,0,0,0,15.05,14.29Z"/></g></g></svg>